# xmcd
#
# Track frame offsets:
#	150
#	20760
#	35863
#	49797
#	65009
#	85697
#	100353
#	115782
#	131715
#	148329
#	161406
#	178499
#	193973
#	206086
#	219857
#	234118
#	258050
#	279406
#	296611
#	306464
#	321946
#	336946
#
# Disc length: 4728 seconds
#
# Revision: 1
# Processed by: cddbd v1.5.2PL0 Copyright (c) Steve Scherf et al.
# Submitted via: audiograbber 1.83.01
#
DISCID=5c127616
DTITLE=Saia Rodada - Ao Vivo em Maceió
DYEAR=2007
DGENRE=Forró
TTITLE0=Saia Rodada - Sem céu e sem chão
TTITLE1=Saia Rodada - Não te quero meu amor
TTITLE2=Siaa Rodada - Amor sem vergonha
TTITLE3=Saia Rodada - Mulher de motel
TTITLE4=Saia Rodada - Beber, cair e levantar
TTITLE5=Saia Rodada - Eu vou botando pra dentro
TTITLE6=Saia Rodada - Descartada
TTITLE7=Saia Rodada - Me diga
TTITLE8=Saia Rodada - Quebra requebra
TTITLE9=Saia Rodada - Tá todo mundo bebo
TTITLE10=Saia Rodada - Bole rebole
TTITLE11=Saia Rodada - Ra ta tá
TTITLE12=Saia Rodada - Ligação complicada
TTITLE13=Saia Rodada - Bebo pra esquecer
TTITLE14=Saia Rodada - Mulher gato
TTITLE15=Saia Rodada - Pot-pourri - Amor de sertão Difícil demais
TTITLE16=Saia Rodada - Um nós por dois eus
TTITLE17=Saia Rodada - Fim de festa
TTITLE18=Saia Rodada - Uni duni tê
TTITLE19=Saia Rodada - Miau miau
TTITLE20=Saia Rodada - Tira o pé do chão
TTITLE21=Saia Rodada - Na frente do cabaré
EXTD=
EXTT0=
EXTT1=
EXTT2=
EXTT3=
EXTT4=
EXTT5=
EXTT6=
EXTT7=
EXTT8=
EXTT9=
EXTT10=
EXTT11=
EXTT12=
EXTT13=
EXTT14=
EXTT15=
EXTT16=
EXTT17=
EXTT18=
EXTT19=
EXTT20=
EXTT21=
PLAYORDER=
